<?xml version="1.0" encoding="UTF-8" standalone="no"?>
<!DOCTYPE svg PUBLIC "-//W3C//DTD SVG 1.1//EN"
 "http://www.w3.org/Graphics/SVG/1.1/DTD/svg11.dtd">
<!-- Generated by graphviz version 9.0.0 (0)
 -->
<!-- Title: xreg Pages: 1 -->
<svg width="242pt" height="294pt"
 viewBox="0.00 0.00 242.49 294.00" xmlns="http://www.w3.org/2000/svg" xmlns:xlink="http://www.w3.org/1999/xlink">
<g id="graph0" class="graph" transform="scale(1 1) rotate(0) translate(4 290)">
<title>xreg</title>
<polygon fill="white" stroke="none" points="-4,4 -4,-290 238.49,-290 238.49,4 -4,4"/>
<!-- init -->
<g id="node1" class="node">
<title>init</title>
</g>
<!-- i -->
<g id="node2" class="node">
<title>i</title>
<ellipse fill="none" stroke="black" cx="150.43" cy="-195" rx="39.07" ry="18"/>
<text text-anchor="middle" x="150.43" y="-189.95" font-family="Times,serif" font-size="14.00">!d &amp; !v</text>
<text text-anchor="start" x="71.61" y="-217.2" font-family="Times,serif" font-weight="bold" font-size="14.00">invalid</text>
</g>
<!-- init&#45;&gt;i -->
<g id="edge1" class="edge">
<title>init&#45;&gt;i</title>
<path fill="none" stroke="black" d="M150.43,-250.17C150.43,-242.56 150.43,-233.35 150.43,-224.7"/>
<polygon fill="black" stroke="black" points="153.93,-224.96 150.43,-214.96 146.93,-224.96 153.93,-224.96"/>
</g>
<!-- i&#45;&gt;i -->
<g id="edge8" class="edge">
<title>i&#45;&gt;i</title>
<path fill="none" stroke="black" d="M186.93,-201.84C198.42,-201.74 207.49,-199.46 207.49,-195 207.49,-192.15 203.77,-190.18 198.07,-189.12"/>
<polygon fill="black" stroke="black" points="198.7,-185.66 188.43,-188.29 198.1,-192.63 198.7,-185.66"/>
<text text-anchor="middle" x="220.99" y="-189.95" font-family="Times,serif" font-size="14.00">flush</text>
</g>
<!-- d -->
<g id="node3" class="node">
<title>d</title>
<ellipse fill="none" stroke="black" cx="61.43" cy="-106.5" rx="32.93" ry="18"/>
<text text-anchor="middle" x="61.43" y="-101.45" font-family="Times,serif" font-size="14.00">d &amp; v</text>
<text text-anchor="start" x="0" y="-128.7" font-family="Times,serif" font-weight="bold" font-size="14.00">dirty</text>
</g>
<!-- i&#45;&gt;d -->
<g id="edge2" class="edge">
<title>i&#45;&gt;d</title>
<path fill="none" stroke="black" d="M118.48,-184.28C104.95,-178.76 89.96,-170.58 79.68,-159 73.79,-152.37 69.77,-143.71 67.03,-135.39"/>
<polygon fill="black" stroke="black" points="70.46,-134.66 64.45,-125.94 63.71,-136.51 70.46,-134.66"/>
<text text-anchor="middle" x="94.3" y="-145.7" font-family="Times,serif" font-size="14.00">write</text>
</g>
<!-- c -->
<g id="node4" class="node">
<title>c</title>
<ellipse fill="none" stroke="black" cx="148.43" cy="-18" rx="36" ry="18"/>
<text text-anchor="middle" x="148.43" y="-12.95" font-family="Times,serif" font-size="14.00">!d &amp; v</text>
<text text-anchor="start" x="82.43" y="-40.2" font-family="Times,serif" font-weight="bold" font-size="14.00">clean</text>
</g>
<!-- i&#45;&gt;c -->
<g id="edge5" class="edge">
<title>i&#45;&gt;c</title>
<path fill="none" stroke="black" d="M152.81,-176.59C153.47,-170.98 154.1,-164.74 154.43,-159 156.62,-120.49 153.8,-75.99 151.33,-47.68"/>
<polygon fill="black" stroke="black" points="154.82,-47.39 150.41,-37.76 147.84,-48.04 154.82,-47.39"/>
<text text-anchor="middle" x="167.05" y="-101.45" font-family="Times,serif" font-size="14.00">read</text>
</g>
<!-- d&#45;&gt;i -->
<g id="edge10" class="edge">
<title>d&#45;&gt;i</title>
<path fill="none" stroke="black" d="M81.46,-121.23C89.83,-127.34 99.45,-134.87 107.43,-142.5 115.84,-150.54 124.23,-160.14 131.34,-168.87"/>
<polygon fill="black" stroke="black" points="128.59,-171.03 137.55,-176.69 134.07,-166.68 128.59,-171.03"/>
<text text-anchor="middle" x="136.93" y="-145.7" font-family="Times,serif" font-size="14.00">flush</text>
</g>
<!-- d&#45;&gt;d -->
<g id="edge4" class="edge">
<title>d&#45;&gt;d</title>
<path fill="none" stroke="black" d="M91.24,-114.76C102.77,-115.13 112.35,-112.38 112.35,-106.5 112.35,-102.74 108.42,-100.25 102.56,-99.05"/>
<polygon fill="black" stroke="black" points="102.98,-95.57 92.75,-98.34 102.48,-102.55 102.98,-95.57"/>
<text text-anchor="middle" x="126.23" y="-101.45" font-family="Times,serif" font-size="14.00">write</text>
</g>
<!-- d&#45;&gt;c -->
<g id="edge7" class="edge">
<title>d&#45;&gt;c</title>
<path fill="none" stroke="black" d="M60.42,-88.1C60.68,-77.27 62.73,-63.61 70.18,-54 78.86,-42.79 91.93,-35.07 104.91,-29.81"/>
<polygon fill="black" stroke="black" points="106.04,-33.12 114.27,-26.44 103.67,-26.53 106.04,-33.12"/>
<text text-anchor="middle" x="82.05" y="-57.2" font-family="Times,serif" font-size="14.00">read</text>
</g>
<!-- c&#45;&gt;i -->
<g id="edge9" class="edge">
<title>c&#45;&gt;i</title>
<path fill="none" stroke="black" d="M159.48,-35.56C167.79,-49.12 178.41,-69.17 182.43,-88.5 188.91,-119.69 182.68,-130.02 169.43,-159 168.22,-161.64 166.9,-164.36 165.53,-167.05"/>
<polygon fill="black" stroke="black" points="162.48,-165.34 160.89,-175.81 168.66,-168.61 162.48,-165.34"/>
<text text-anchor="middle" x="197.93" y="-101.45" font-family="Times,serif" font-size="14.00">flush</text>
</g>
<!-- c&#45;&gt;d -->
<g id="edge3" class="edge">
<title>c&#45;&gt;d</title>
<path fill="none" stroke="black" d="M132.86,-34.48C119.42,-47.84 99.82,-67.32 84.55,-82.51"/>
<polygon fill="black" stroke="black" points="82.28,-79.83 77.65,-89.37 87.21,-84.8 82.28,-79.83"/>
<text text-anchor="middle" x="127.3" y="-57.2" font-family="Times,serif" font-size="14.00">write</text>
</g>
<!-- c&#45;&gt;c -->
<g id="edge6" class="edge">
<title>c&#45;&gt;c</title>
<path fill="none" stroke="black" d="M180.85,-26.28C192.71,-26.51 202.42,-23.75 202.42,-18 202.42,-14.23 198.24,-11.74 192.01,-10.54"/>
<polygon fill="black" stroke="black" points="192.59,-7.08 182.36,-9.83 192.07,-14.06 192.59,-7.08"/>
<text text-anchor="middle" x="214.05" y="-12.95" font-family="Times,serif" font-size="14.00">read</text>
</g>
</g>
</svg>
