<?xml version="1.0" encoding="UTF-8" standalone="no"?>
<!DOCTYPE svg PUBLIC "-//W3C//DTD SVG 1.1//EN"
 "http://www.w3.org/Graphics/SVG/1.1/DTD/svg11.dtd">
<!-- Generated by graphviz version 9.0.0 (0)
 -->
<!-- Title: xureg_mul Pages: 1 -->
<svg width="943pt" height="825pt"
 viewBox="0.00 0.00 943.25 825.00" xmlns="http://www.w3.org/2000/svg" xmlns:xlink="http://www.w3.org/1999/xlink">
<g id="graph0" class="graph" transform="scale(1 1) rotate(0) translate(4 821)">
<title>xureg_mul</title>
<polygon fill="white" stroke="none" points="-4,4 -4,-821 939.25,-821 939.25,4 -4,4"/>
<!-- init -->
<g id="node1" class="node">
<title>init</title>
</g>
<!-- ii -->
<g id="node2" class="node">
<title>ii</title>
<ellipse fill="none" stroke="black" cx="398" cy="-726" rx="98.44" ry="18"/>
<text text-anchor="middle" x="398" y="-720.95" font-family="Times,serif" font-size="14.00">!xd &amp; !xv &amp; !ud &amp; !uv</text>
<text text-anchor="start" x="292.06" y="-748.2" font-family="Times,serif" font-weight="bold" font-size="14.00">ii</text>
</g>
<!-- init&#45;&gt;ii -->
<g id="edge1" class="edge">
<title>init&#45;&gt;ii</title>
<path fill="none" stroke="black" d="M398,-781.17C398,-773.56 398,-764.35 398,-755.7"/>
<polygon fill="black" stroke="black" points="401.5,-755.96 398,-745.96 394.5,-755.96 401.5,-755.96"/>
</g>
<!-- ii&#45;&gt;ii -->
<g id="edge20" class="edge">
<title>ii&#45;&gt;ii</title>
<path fill="none" stroke="black" d="M495.68,-728.92C507.05,-728.38 514.44,-727.41 514.44,-726 514.44,-725.14 511.69,-724.45 506.98,-723.91"/>
<polygon fill="black" stroke="black" points="507.42,-720.43 497.19,-723.19 506.91,-727.41 507.42,-720.43"/>
<text text-anchor="middle" x="520.06" y="-720.95" font-family="Times,serif" font-size="14.00">fx</text>
</g>
<!-- ii&#45;&gt;ii -->
<g id="edge47" class="edge">
<title>ii&#45;&gt;ii</title>
<path fill="none" stroke="black" d="M490.05,-732.78C514.19,-732.38 532.44,-730.12 532.44,-726 532.44,-722.56 519.69,-720.41 501.4,-719.57"/>
<polygon fill="black" stroke="black" points="501.67,-716.08 491.57,-719.27 501.45,-723.07 501.67,-716.08"/>
<text text-anchor="middle" x="538.06" y="-720.95" font-family="Times,serif" font-size="14.00">fu</text>
</g>
<!-- ic -->
<g id="node3" class="node">
<title>ic</title>
<ellipse fill="none" stroke="black" cx="398" cy="-637.5" rx="95.37" ry="18"/>
<text text-anchor="middle" x="398" y="-632.45" font-family="Times,serif" font-size="14.00">!xd &amp; !xv &amp; !ud &amp; uv</text>
<text text-anchor="start" x="292.88" y="-659.7" font-family="Times,serif" font-weight="bold" font-size="14.00">ic</text>
</g>
<!-- ii&#45;&gt;ic -->
<g id="edge38" class="edge">
<title>ii&#45;&gt;ic</title>
<path fill="none" stroke="black" d="M398,-707.91C398,-696.26 398,-680.55 398,-667.02"/>
<polygon fill="black" stroke="black" points="401.5,-667.36 398,-657.36 394.5,-667.36 401.5,-667.36"/>
<text text-anchor="middle" x="403.62" y="-676.7" font-family="Times,serif" font-size="14.00">ru</text>
</g>
<!-- id -->
<g id="node4" class="node">
<title>id</title>
<ellipse fill="none" stroke="black" cx="552" cy="-372" rx="92.3" ry="18"/>
<text text-anchor="middle" x="552" y="-366.95" font-family="Times,serif" font-size="14.00">!xd &amp; !xv &amp; ud &amp; uv</text>
<text text-anchor="start" x="448.45" y="-394.2" font-family="Times,serif" font-weight="bold" font-size="14.00">id</text>
</g>
<!-- ii&#45;&gt;id -->
<g id="edge29" class="edge">
<title>ii&#45;&gt;id</title>
<path fill="none" stroke="black" d="M482.98,-716.61C527.18,-710.93 575.71,-702.21 594,-690 616.61,-674.9 627,-665.68 627,-638.5 627,-638.5 627,-638.5 627,-459.5 627,-433.59 607.55,-411.64 588.46,-396.33"/>
<polygon fill="black" stroke="black" points="590.8,-393.71 580.71,-390.48 586.59,-399.3 590.8,-393.71"/>
<text text-anchor="middle" x="635.25" y="-543.95" font-family="Times,serif" font-size="14.00">wu</text>
</g>
<!-- ci -->
<g id="node5" class="node">
<title>ci</title>
<ellipse fill="none" stroke="black" cx="360" cy="-106.5" rx="95.37" ry="18"/>
<text text-anchor="middle" x="360" y="-101.45" font-family="Times,serif" font-size="14.00">!xd &amp; xv &amp; !ud &amp; !uv</text>
<text text-anchor="start" x="254.88" y="-128.7" font-family="Times,serif" font-weight="bold" font-size="14.00">ci</text>
</g>
<!-- ii&#45;&gt;ci -->
<g id="edge11" class="edge">
<title>ii&#45;&gt;ci</title>
<path fill="none" stroke="black" d="M305.06,-719.87C225.27,-714.5 121.08,-704.75 108,-690 14.27,-584.28 132,-514.29 132,-373 132,-373 132,-373 132,-194 132,-168.75 135.93,-157.83 156,-142.5 173.01,-129.51 218.36,-121.03 262,-115.67"/>
<polygon fill="black" stroke="black" points="262.31,-119.16 271.83,-114.52 261.49,-112.21 262.31,-119.16"/>
<text text-anchor="middle" x="135.62" y="-411.2" font-family="Times,serif" font-size="14.00">rx</text>
</g>
<!-- di -->
<g id="node8" class="node">
<title>di</title>
<ellipse fill="none" stroke="black" cx="360" cy="-18" rx="92.3" ry="18"/>
<text text-anchor="middle" x="360" y="-12.95" font-family="Times,serif" font-size="14.00">xd &amp; xv &amp; !ud &amp; !uv</text>
<text text-anchor="start" x="256.45" y="-40.2" font-family="Times,serif" font-weight="bold" font-size="14.00">di</text>
</g>
<!-- ii&#45;&gt;di -->
<g id="edge2" class="edge">
<title>ii&#45;&gt;di</title>
<path fill="none" stroke="black" d="M300.64,-722.95C182.81,-717.77 0,-699.84 0,-638.5 0,-638.5 0,-638.5 0,-105.5 0,-51.93 152.61,-31.45 259.1,-23.68"/>
<polygon fill="black" stroke="black" points="259.31,-27.17 269.04,-22.98 258.82,-20.19 259.31,-27.17"/>
<text text-anchor="middle" x="8.25" y="-366.95" font-family="Times,serif" font-size="14.00">wx</text>
</g>
<!-- ic&#45;&gt;ii -->
<g id="edge48" class="edge">
<title>ic&#45;&gt;ii</title>
<path fill="none" stroke="black" d="M388.77,-655.84C386.31,-661.33 383.99,-667.53 382.75,-673.5 381.25,-680.68 381.25,-682.82 382.75,-690 383.24,-692.33 383.89,-694.7 384.64,-697.04"/>
<polygon fill="black" stroke="black" points="381.34,-698.2 388.23,-706.25 387.86,-695.66 381.34,-698.2"/>
<text text-anchor="middle" x="388.62" y="-676.7" font-family="Times,serif" font-size="14.00">fu</text>
</g>
<!-- ic&#45;&gt;ic -->
<g id="edge21" class="edge">
<title>ic&#45;&gt;ic</title>
<path fill="none" stroke="black" d="M491.83,-641.11C503.61,-640.48 511.37,-639.27 511.37,-637.5 511.37,-636.39 508.34,-635.51 503.19,-634.84"/>
<polygon fill="black" stroke="black" points="503.6,-631.37 493.34,-634.01 503.01,-638.34 503.6,-631.37"/>
<text text-anchor="middle" x="516.99" y="-632.45" font-family="Times,serif" font-size="14.00">fx</text>
</g>
<!-- ic&#45;&gt;ic -->
<g id="edge39" class="edge">
<title>ic&#45;&gt;ic</title>
<path fill="none" stroke="black" d="M483.6,-645.78C509.31,-645.55 529.37,-642.79 529.37,-637.5 529.37,-633.01 514.96,-630.35 494.91,-629.5"/>
<polygon fill="black" stroke="black" points="495.2,-626 485.11,-629.26 495.02,-633 495.2,-626"/>
<text text-anchor="middle" x="534.99" y="-632.45" font-family="Times,serif" font-size="14.00">ru</text>
</g>
<!-- ic&#45;&gt;id -->
<g id="edge30" class="edge">
<title>ic&#45;&gt;id</title>
<path fill="none" stroke="black" d="M445.81,-621.54C455.64,-616.53 465.09,-609.98 472,-601.5 502.33,-564.27 485.43,-542.98 497.5,-496.5 507.76,-457 502.82,-444.02 522,-408 523.64,-404.92 525.59,-401.88 527.7,-398.94"/>
<polygon fill="black" stroke="black" points="530.35,-401.23 533.84,-391.23 524.88,-396.87 530.35,-401.23"/>
<text text-anchor="middle" x="506.25" y="-499.7" font-family="Times,serif" font-size="14.00">wu</text>
</g>
<!-- cc -->
<g id="node6" class="node">
<title>cc</title>
<ellipse fill="none" stroke="black" cx="360" cy="-195" rx="92.3" ry="18"/>
<text text-anchor="middle" x="360" y="-189.95" font-family="Times,serif" font-size="14.00">!xd &amp; xv &amp; !ud &amp; uv</text>
<text text-anchor="start" x="255.7" y="-217.2" font-family="Times,serif" font-weight="bold" font-size="14.00">cc</text>
</g>
<!-- ic&#45;&gt;cc -->
<g id="edge12" class="edge">
<title>ic&#45;&gt;cc</title>
<path fill="none" stroke="black" d="M399.43,-619.31C400.95,-598.41 402.9,-562.09 401,-531 394.04,-416.88 373.87,-282.11 364.67,-224.46"/>
<polygon fill="black" stroke="black" points="368.17,-224.18 363.13,-214.86 361.26,-225.29 368.17,-224.18"/>
<text text-anchor="middle" x="397.62" y="-411.2" font-family="Times,serif" font-size="14.00">rx</text>
</g>
<!-- dc -->
<g id="node9" class="node">
<title>dc</title>
<ellipse fill="none" stroke="black" cx="239" cy="-549" rx="89.23" ry="18"/>
<text text-anchor="middle" x="239" y="-543.95" font-family="Times,serif" font-size="14.00">xd &amp; xv &amp; !ud &amp; uv</text>
<text text-anchor="start" x="136.27" y="-571.2" font-family="Times,serif" font-weight="bold" font-size="14.00">dc</text>
</g>
<!-- ic&#45;&gt;dc -->
<g id="edge3" class="edge">
<title>ic&#45;&gt;dc</title>
<path fill="none" stroke="black" d="M367.72,-620.03C342.63,-606.38 306.76,-586.87 279.26,-571.9"/>
<polygon fill="black" stroke="black" points="280.95,-568.84 270.5,-567.14 277.61,-574.99 280.95,-568.84"/>
<text text-anchor="middle" x="341.25" y="-588.2" font-family="Times,serif" font-size="14.00">wx</text>
</g>
<!-- id&#45;&gt;ii -->
<g id="edge49" class="edge">
<title>id&#45;&gt;ii</title>
<path fill="none" stroke="black" d="M561.17,-390.36C569.33,-407.46 580,-434.56 580,-459.5 580,-638.5 580,-638.5 580,-638.5 580,-681.56 537.94,-703.2 494.25,-714.08"/>
<polygon fill="black" stroke="black" points="493.58,-710.64 484.61,-716.28 495.14,-717.47 493.58,-710.64"/>
<text text-anchor="middle" x="585.62" y="-543.95" font-family="Times,serif" font-size="14.00">fu</text>
</g>
<!-- id&#45;&gt;ic -->
<g id="edge40" class="edge">
<title>id&#45;&gt;ic</title>
<path fill="none" stroke="black" d="M553.01,-390.24C554.48,-432.72 552.02,-543.2 492,-601.5 484.92,-608.38 476.37,-613.92 467.34,-618.39"/>
<polygon fill="black" stroke="black" points="466.1,-615.11 458.39,-622.38 468.95,-621.51 466.1,-615.11"/>
<text text-anchor="middle" x="548.62" y="-499.7" font-family="Times,serif" font-size="14.00">ru</text>
</g>
<!-- id&#45;&gt;id -->
<g id="edge22" class="edge">
<title>id&#45;&gt;id</title>
<path fill="none" stroke="black" d="M642.87,-375.64C654.57,-375.01 662.3,-373.79 662.3,-372 662.3,-370.88 659.28,-369.99 654.16,-369.32"/>
<polygon fill="black" stroke="black" points="654.63,-365.85 644.38,-368.49 654.04,-372.82 654.63,-365.85"/>
<text text-anchor="middle" x="667.92" y="-366.95" font-family="Times,serif" font-size="14.00">fx</text>
</g>
<!-- id&#45;&gt;id -->
<g id="edge31" class="edge">
<title>id&#45;&gt;id</title>
<path fill="none" stroke="black" d="M634.67,-380.29C660.23,-380.12 680.3,-377.36 680.3,-372 680.3,-367.46 665.88,-364.78 645.92,-363.97"/>
<polygon fill="black" stroke="black" points="646.27,-360.48 636.19,-363.75 646.11,-367.47 646.27,-360.48"/>
<text text-anchor="middle" x="688.55" y="-366.95" font-family="Times,serif" font-size="14.00">wu</text>
</g>
<!-- cd -->
<g id="node7" class="node">
<title>cd</title>
<ellipse fill="none" stroke="black" cx="550" cy="-283.5" rx="89.23" ry="18"/>
<text text-anchor="middle" x="550" y="-278.45" font-family="Times,serif" font-size="14.00">!xd &amp; xv &amp; ud &amp; uv</text>
<text text-anchor="start" x="447.27" y="-305.7" font-family="Times,serif" font-weight="bold" font-size="14.00">cd</text>
</g>
<!-- id&#45;&gt;cd -->
<g id="edge13" class="edge">
<title>id&#45;&gt;cd</title>
<path fill="none" stroke="black" d="M541.57,-353.78C538.79,-348.3 536.16,-342.07 534.75,-336 532.93,-328.19 534.05,-319.82 536.35,-312.14"/>
<polygon fill="black" stroke="black" points="539.56,-313.54 539.81,-302.95 533.01,-311.07 539.56,-313.54"/>
<text text-anchor="middle" x="539.62" y="-322.7" font-family="Times,serif" font-size="14.00">rx</text>
</g>
<!-- dd -->
<g id="node10" class="node">
<title>dd</title>
<ellipse fill="none" stroke="black" cx="741" cy="-460.5" rx="86.15" ry="18"/>
<text text-anchor="middle" x="741" y="-455.45" font-family="Times,serif" font-size="14.00">xd &amp; xv &amp; ud &amp; uv</text>
<text text-anchor="start" x="639.85" y="-482.7" font-family="Times,serif" font-weight="bold" font-size="14.00">dd</text>
</g>
<!-- id&#45;&gt;dd -->
<g id="edge4" class="edge">
<title>id&#45;&gt;dd</title>
<path fill="none" stroke="black" d="M593.57,-388.35C608.65,-394.18 625.72,-401.08 641,-408 661.17,-417.13 683.09,-428.28 701.25,-437.86"/>
<polygon fill="black" stroke="black" points="699.38,-440.83 709.86,-442.44 702.67,-434.65 699.38,-440.83"/>
<text text-anchor="middle" x="682.25" y="-411.2" font-family="Times,serif" font-size="14.00">wx</text>
</g>
<!-- ci&#45;&gt;ii -->
<g id="edge23" class="edge">
<title>ci&#45;&gt;ii</title>
<path fill="none" stroke="black" d="M273.34,-114.31C223.23,-123.53 170,-144.89 170,-194 170,-373 170,-373 170,-373 170,-444.4 147.47,-459.9 141,-531 139.55,-546.93 133.19,-553.03 141,-567 182.29,-640.85 273.81,-684.42 335.73,-706.51"/>
<polygon fill="black" stroke="black" points="334.52,-709.79 345.11,-709.76 336.81,-703.18 334.52,-709.79"/>
<text text-anchor="middle" x="173.62" y="-411.2" font-family="Times,serif" font-size="14.00">fx</text>
</g>
<!-- ci&#45;&gt;ci -->
<g id="edge14" class="edge">
<title>ci&#45;&gt;ci</title>
<path fill="none" stroke="black" d="M453.83,-110.11C465.61,-109.48 473.37,-108.27 473.37,-106.5 473.37,-105.39 470.34,-104.51 465.19,-103.84"/>
<polygon fill="black" stroke="black" points="465.6,-100.37 455.34,-103.01 465.01,-107.34 465.6,-100.37"/>
<text text-anchor="middle" x="478.99" y="-101.45" font-family="Times,serif" font-size="14.00">rx</text>
</g>
<!-- ci&#45;&gt;ci -->
<g id="edge50" class="edge">
<title>ci&#45;&gt;ci</title>
<path fill="none" stroke="black" d="M445.6,-114.78C471.31,-114.55 491.37,-111.79 491.37,-106.5 491.37,-102.01 476.96,-99.35 456.91,-98.5"/>
<polygon fill="black" stroke="black" points="457.2,-95 447.11,-98.26 457.02,-102 457.2,-95"/>
<text text-anchor="middle" x="496.99" y="-101.45" font-family="Times,serif" font-size="14.00">fu</text>
</g>
<!-- ci&#45;&gt;cc -->
<g id="edge41" class="edge">
<title>ci&#45;&gt;cc</title>
<path fill="none" stroke="black" d="M360,-124.85C360,-136.56 360,-152.29 360,-165.78"/>
<polygon fill="black" stroke="black" points="356.5,-165.4 360,-175.4 363.5,-165.4 356.5,-165.4"/>
<text text-anchor="middle" x="365.62" y="-145.7" font-family="Times,serif" font-size="14.00">ru</text>
</g>
<!-- ci&#45;&gt;cd -->
<g id="edge32" class="edge">
<title>ci&#45;&gt;cd</title>
<path fill="none" stroke="black" d="M421.64,-120.61C455.09,-130.73 494.67,-148.06 520,-177 538.69,-198.35 545.79,-230.6 548.45,-253.81"/>
<polygon fill="black" stroke="black" points="544.95,-253.88 549.34,-263.52 551.92,-253.24 544.95,-253.88"/>
<text text-anchor="middle" x="547.25" y="-189.95" font-family="Times,serif" font-size="14.00">wu</text>
</g>
<!-- ci&#45;&gt;di -->
<g id="edge5" class="edge">
<title>ci&#45;&gt;di</title>
<path fill="none" stroke="black" d="M348.82,-88.37C345.84,-82.88 343.02,-76.64 341.5,-70.5 339.73,-63.38 339.73,-61.12 341.5,-54 342.12,-51.51 342.95,-49 343.92,-46.52"/>
<polygon fill="black" stroke="black" points="347.08,-48.04 348.18,-37.5 340.75,-45.05 347.08,-48.04"/>
<text text-anchor="middle" x="350.25" y="-57.2" font-family="Times,serif" font-size="14.00">wx</text>
</g>
<!-- cc&#45;&gt;ic -->
<g id="edge24" class="edge">
<title>cc&#45;&gt;ic</title>
<path fill="none" stroke="black" d="M371.91,-213.21C375.26,-218.69 378.64,-224.92 381,-231 386.66,-245.59 385.39,-250.07 388,-265.5 407.78,-382.49 412.57,-412.4 416,-531 416.91,-562.32 422.47,-571.07 415,-601.5 414.4,-603.95 413.61,-606.43 412.7,-608.89"/>
<polygon fill="black" stroke="black" points="409.58,-607.29 408.78,-617.86 415.99,-610.1 409.58,-607.29"/>
<text text-anchor="middle" x="416.62" y="-411.2" font-family="Times,serif" font-size="14.00">fx</text>
</g>
<!-- cc&#45;&gt;ci -->
<g id="edge51" class="edge">
<title>cc&#45;&gt;ci</title>
<path fill="none" stroke="black" d="M350.77,-176.66C348.31,-171.17 345.99,-164.97 344.75,-159 343.25,-151.82 343.25,-149.68 344.75,-142.5 345.24,-140.17 345.89,-137.8 346.64,-135.46"/>
<polygon fill="black" stroke="black" points="349.86,-136.84 350.23,-126.25 343.34,-134.3 349.86,-136.84"/>
<text text-anchor="middle" x="350.62" y="-145.7" font-family="Times,serif" font-size="14.00">fu</text>
</g>
<!-- cc&#45;&gt;cc -->
<g id="edge15" class="edge">
<title>cc&#45;&gt;cc</title>
<path fill="none" stroke="black" d="M450.87,-198.64C462.57,-198.01 470.3,-196.79 470.3,-195 470.3,-193.88 467.28,-192.99 462.16,-192.32"/>
<polygon fill="black" stroke="black" points="462.63,-188.85 452.38,-191.49 462.04,-195.82 462.63,-188.85"/>
<text text-anchor="middle" x="475.92" y="-189.95" font-family="Times,serif" font-size="14.00">rx</text>
</g>
<!-- cc&#45;&gt;cc -->
<g id="edge42" class="edge">
<title>cc&#45;&gt;cc</title>
<path fill="none" stroke="black" d="M442.67,-203.29C468.23,-203.12 488.3,-200.36 488.3,-195 488.3,-190.46 473.88,-187.78 453.92,-186.97"/>
<polygon fill="black" stroke="black" points="454.27,-183.48 444.19,-186.75 454.11,-190.47 454.27,-183.48"/>
<text text-anchor="middle" x="493.92" y="-189.95" font-family="Times,serif" font-size="14.00">ru</text>
</g>
<!-- cc&#45;&gt;cd -->
<g id="edge33" class="edge">
<title>cc&#45;&gt;cd</title>
<path fill="none" stroke="black" d="M421.23,-208.84C441.2,-214.25 463.08,-221.54 482,-231 496.57,-238.29 511.16,-248.81 523.08,-258.46"/>
<polygon fill="black" stroke="black" points="520.54,-260.9 530.46,-264.62 525.03,-255.52 520.54,-260.9"/>
<text text-anchor="middle" x="516.25" y="-234.2" font-family="Times,serif" font-size="14.00">wu</text>
</g>
<!-- cc&#45;&gt;dc -->
<g id="edge6" class="edge">
<title>cc&#45;&gt;dc</title>
<path fill="none" stroke="black" d="M324.43,-212.02C298.54,-226.37 268,-250.16 268,-282.5 268,-461.5 268,-461.5 268,-461.5 268,-482.03 260.57,-503.94 253.23,-520.58"/>
<polygon fill="black" stroke="black" points="250.21,-518.77 249.14,-529.31 256.55,-521.74 250.21,-518.77"/>
<text text-anchor="middle" x="276.25" y="-366.95" font-family="Times,serif" font-size="14.00">wx</text>
</g>
<!-- cd&#45;&gt;id -->
<g id="edge25" class="edge">
<title>cd&#45;&gt;id</title>
<path fill="none" stroke="black" d="M550.4,-301.85C550.67,-313.56 551.04,-329.29 551.35,-342.78"/>
<polygon fill="black" stroke="black" points="547.84,-342.48 551.57,-352.4 554.84,-342.32 547.84,-342.48"/>
<text text-anchor="middle" x="556.62" y="-322.7" font-family="Times,serif" font-size="14.00">fx</text>
</g>
<!-- cd&#45;&gt;ci -->
<g id="edge52" class="edge">
<title>cd&#45;&gt;ci</title>
<path fill="none" stroke="black" d="M557.43,-265.15C565.64,-243.12 575.73,-204.67 560,-177 539.94,-141.73 500.01,-123.96 461.06,-115.15"/>
<polygon fill="black" stroke="black" points="461.83,-111.73 451.33,-113.15 460.42,-118.59 461.83,-111.73"/>
<text text-anchor="middle" x="573.62" y="-189.95" font-family="Times,serif" font-size="14.00">fu</text>
</g>
<!-- cd&#45;&gt;cc -->
<g id="edge43" class="edge">
<title>cd&#45;&gt;cc</title>
<path fill="none" stroke="black" d="M507.94,-267.22C494.44,-261.69 479.65,-254.95 466.75,-247.5 456.24,-241.43 455.53,-237.03 445,-231 435.13,-225.35 424.17,-220.14 413.49,-215.55"/>
<polygon fill="black" stroke="black" points="414.93,-212.36 404.36,-211.76 412.25,-218.83 414.93,-212.36"/>
<text text-anchor="middle" x="472.62" y="-234.2" font-family="Times,serif" font-size="14.00">ru</text>
</g>
<!-- cd&#45;&gt;cd -->
<g id="edge16" class="edge">
<title>cd&#45;&gt;cd</title>
<path fill="none" stroke="black" d="M637.92,-287.16C649.53,-286.53 657.23,-285.31 657.23,-283.5 657.23,-282.37 654.22,-281.46 649.13,-280.79"/>
<polygon fill="black" stroke="black" points="649.69,-277.33 639.43,-279.97 649.1,-284.3 649.69,-277.33"/>
<text text-anchor="middle" x="662.85" y="-278.45" font-family="Times,serif" font-size="14.00">rx</text>
</g>
<!-- cd&#45;&gt;cd -->
<g id="edge34" class="edge">
<title>cd&#45;&gt;cd</title>
<path fill="none" stroke="black" d="M630.09,-291.79C655.32,-291.67 675.23,-288.9 675.23,-283.5 675.23,-278.94 661.06,-276.26 641.47,-275.46"/>
<polygon fill="black" stroke="black" points="641.68,-271.96 631.6,-275.24 641.52,-278.96 641.68,-271.96"/>
<text text-anchor="middle" x="683.48" y="-278.45" font-family="Times,serif" font-size="14.00">wu</text>
</g>
<!-- cd&#45;&gt;dd -->
<g id="edge7" class="edge">
<title>cd&#45;&gt;dd</title>
<path fill="none" stroke="black" d="M614.49,-296.31C649.68,-306.02 691.2,-323.38 717,-354 735.03,-375.41 740.21,-407.64 741.38,-430.84"/>
<polygon fill="black" stroke="black" points="737.87,-430.63 741.63,-440.54 744.87,-430.45 737.87,-430.63"/>
<text text-anchor="middle" x="742.25" y="-366.95" font-family="Times,serif" font-size="14.00">wx</text>
</g>
<!-- di&#45;&gt;ii -->
<g id="edge26" class="edge">
<title>di&#45;&gt;ii</title>
<path fill="none" stroke="black" d="M450.69,-21.77C587.5,-26.47 834.73,-37.16 872,-54 901.64,-67.39 924,-72.97 924,-105.5 924,-638.5 924,-638.5 924,-638.5 924,-680.93 654.01,-706.97 500.89,-718.32"/>
<polygon fill="black" stroke="black" points="500.85,-714.81 491.13,-719.03 501.36,-721.79 500.85,-714.81"/>
<text text-anchor="middle" x="929.62" y="-366.95" font-family="Times,serif" font-size="14.00">fx</text>
</g>
<!-- di&#45;&gt;ci -->
<g id="edge17" class="edge">
<title>di&#45;&gt;ci</title>
<path fill="none" stroke="black" d="M360,-36.35C360,-48.06 360,-63.79 360,-77.28"/>
<polygon fill="black" stroke="black" points="356.5,-76.9 360,-86.9 363.5,-76.9 356.5,-76.9"/>
<text text-anchor="middle" x="365.62" y="-57.2" font-family="Times,serif" font-size="14.00">rx</text>
</g>
<!-- di&#45;&gt;di -->
<g id="edge8" class="edge">
<title>di&#45;&gt;di</title>
<path fill="none" stroke="black" d="M450.87,-21.64C462.57,-21.01 470.3,-19.79 470.3,-18 470.3,-16.88 467.28,-15.99 462.16,-15.32"/>
<polygon fill="black" stroke="black" points="462.63,-11.85 452.38,-14.49 462.04,-18.82 462.63,-11.85"/>
<text text-anchor="middle" x="478.55" y="-12.95" font-family="Times,serif" font-size="14.00">wx</text>
</g>
<!-- di&#45;&gt;di -->
<g id="edge53" class="edge">
<title>di&#45;&gt;di</title>
<path fill="none" stroke="black" d="M442.67,-26.29C468.23,-26.12 488.3,-23.36 488.3,-18 488.3,-13.46 473.88,-10.78 453.92,-9.97"/>
<polygon fill="black" stroke="black" points="454.27,-6.48 444.19,-9.75 454.11,-13.47 454.27,-6.48"/>
<text text-anchor="middle" x="493.92" y="-12.95" font-family="Times,serif" font-size="14.00">fu</text>
</g>
<!-- di&#45;&gt;dc -->
<g id="edge44" class="edge">
<title>di&#45;&gt;dc</title>
<path fill="none" stroke="black" d="M284.2,-28.56C205.27,-40.69 93,-65.06 93,-105.5 93,-461.5 93,-461.5 93,-461.5 93,-498.77 128.66,-520.33 164.73,-532.6"/>
<polygon fill="black" stroke="black" points="163.35,-535.84 173.94,-535.52 165.46,-529.17 163.35,-535.84"/>
<text text-anchor="middle" x="98.62" y="-278.45" font-family="Times,serif" font-size="14.00">ru</text>
</g>
<!-- di&#45;&gt;dd -->
<g id="edge35" class="edge">
<title>di&#45;&gt;dd</title>
<path fill="none" stroke="black" d="M451.69,-20.58C584.5,-23.61 818.08,-32.02 850,-54 870.8,-68.32 874,-80.25 874,-105.5 874,-373 874,-373 874,-373 874,-398.25 868.94,-407.8 850,-424.5 840.32,-433.04 828.53,-439.5 816.32,-444.39"/>
<polygon fill="black" stroke="black" points="815.17,-441.08 806.96,-447.77 817.55,-447.66 815.17,-441.08"/>
<text text-anchor="middle" x="882.25" y="-234.2" font-family="Times,serif" font-size="14.00">wu</text>
</g>
<!-- dc&#45;&gt;ic -->
<g id="edge27" class="edge">
<title>dc&#45;&gt;ic</title>
<path fill="none" stroke="black" d="M252.01,-566.94C261.41,-578.15 275.01,-592.41 289.75,-601.5 301.56,-608.78 315.03,-614.7 328.37,-619.46"/>
<polygon fill="black" stroke="black" points="326.98,-622.68 337.57,-622.55 329.2,-616.05 326.98,-622.68"/>
<text text-anchor="middle" x="295.62" y="-588.2" font-family="Times,serif" font-size="14.00">fx</text>
</g>
<!-- dc&#45;&gt;cc -->
<g id="edge18" class="edge">
<title>dc&#45;&gt;cc</title>
<path fill="none" stroke="black" d="M275.73,-532.29C302.46,-518.1 334,-494.4 334,-461.5 334,-461.5 334,-461.5 334,-282.5 334,-262.05 340.75,-239.98 347.37,-223.26"/>
<polygon fill="black" stroke="black" points="350.4,-225.08 351.04,-214.5 343.95,-222.37 350.4,-225.08"/>
<text text-anchor="middle" x="339.62" y="-366.95" font-family="Times,serif" font-size="14.00">rx</text>
</g>
<!-- dc&#45;&gt;di -->
<g id="edge54" class="edge">
<title>dc&#45;&gt;di</title>
<path fill="none" stroke="black" d="M155.47,-542.39C103.31,-533.81 46,-512.72 46,-461.5 46,-461.5 46,-461.5 46,-105.5 46,-59.63 172.1,-37.16 264.48,-26.85"/>
<polygon fill="black" stroke="black" points="264.78,-30.34 274.35,-25.79 264.03,-23.38 264.78,-30.34"/>
<text text-anchor="middle" x="51.62" y="-278.45" font-family="Times,serif" font-size="14.00">fu</text>
</g>
<!-- dc&#45;&gt;dc -->
<g id="edge9" class="edge">
<title>dc&#45;&gt;dc</title>
<path fill="none" stroke="black" d="M326.92,-552.66C338.53,-552.03 346.23,-550.81 346.23,-549 346.23,-547.87 343.22,-546.96 338.13,-546.29"/>
<polygon fill="black" stroke="black" points="338.69,-542.83 328.43,-545.47 338.1,-549.8 338.69,-542.83"/>
<text text-anchor="middle" x="354.48" y="-543.95" font-family="Times,serif" font-size="14.00">wx</text>
</g>
<!-- dc&#45;&gt;dc -->
<g id="edge45" class="edge">
<title>dc&#45;&gt;dc</title>
<path fill="none" stroke="black" d="M319.09,-557.29C344.32,-557.17 364.23,-554.4 364.23,-549 364.23,-544.44 350.06,-541.76 330.47,-540.96"/>
<polygon fill="black" stroke="black" points="330.68,-537.46 320.6,-540.74 330.52,-544.46 330.68,-537.46"/>
<text text-anchor="middle" x="369.85" y="-543.95" font-family="Times,serif" font-size="14.00">ru</text>
</g>
<!-- dc&#45;&gt;dd -->
<g id="edge36" class="edge">
<title>dc&#45;&gt;dd</title>
<path fill="none" stroke="black" d="M325.79,-544.35C446.77,-538.78 654.96,-527.3 687,-513 699.99,-507.2 711.78,-496.9 721,-487.02"/>
<polygon fill="black" stroke="black" points="723.44,-489.54 727.41,-479.72 718.18,-484.93 723.44,-489.54"/>
<text text-anchor="middle" x="718.25" y="-499.7" font-family="Times,serif" font-size="14.00">wu</text>
</g>
<!-- dd&#45;&gt;id -->
<g id="edge28" class="edge">
<title>dd&#45;&gt;id</title>
<path fill="none" stroke="black" d="M728.74,-442.23C719.8,-430.87 706.71,-416.57 692,-408 675.17,-398.19 655.65,-391.12 636.63,-386.01"/>
<polygon fill="black" stroke="black" points="637.53,-382.63 626.98,-383.6 635.83,-389.42 637.53,-382.63"/>
<text text-anchor="middle" x="716.62" y="-411.2" font-family="Times,serif" font-size="14.00">fx</text>
</g>
<!-- dd&#45;&gt;cd -->
<g id="edge19" class="edge">
<title>dd&#45;&gt;cd</title>
<path fill="none" stroke="black" d="M749.34,-442.24C758.64,-420.32 770.47,-381.97 755,-354 733.92,-315.89 689.91,-298.04 648.05,-289.92"/>
<polygon fill="black" stroke="black" points="648.85,-286.51 638.39,-288.23 647.64,-293.4 648.85,-286.51"/>
<text text-anchor="middle" x="767.62" y="-366.95" font-family="Times,serif" font-size="14.00">rx</text>
</g>
<!-- dd&#45;&gt;di -->
<g id="edge55" class="edge">
<title>dd&#45;&gt;di</title>
<path fill="none" stroke="black" d="M777.73,-443.79C804.46,-429.6 836,-405.9 836,-373 836,-373 836,-373 836,-105.5 836,-67.17 593.94,-39.52 455.05,-26.81"/>
<polygon fill="black" stroke="black" points="455.79,-23.36 445.51,-25.94 455.15,-30.33 455.79,-23.36"/>
<text text-anchor="middle" x="841.62" y="-234.2" font-family="Times,serif" font-size="14.00">fu</text>
</g>
<!-- dd&#45;&gt;dc -->
<g id="edge46" class="edge">
<title>dd&#45;&gt;dc</title>
<path fill="none" stroke="black" d="M695,-476.09C656.8,-487.7 600.86,-503.5 551,-513 478.67,-526.78 395.79,-535.76 333.64,-541.17"/>
<polygon fill="black" stroke="black" points="333.46,-537.67 323.8,-542.01 334.06,-544.65 333.46,-537.67"/>
<text text-anchor="middle" x="624.62" y="-499.7" font-family="Times,serif" font-size="14.00">ru</text>
</g>
<!-- dd&#45;&gt;dd -->
<g id="edge10" class="edge">
<title>dd&#45;&gt;dd</title>
<path fill="none" stroke="black" d="M825.59,-464.2C837.32,-463.59 845.15,-462.36 845.15,-460.5 845.15,-459.34 842.09,-458.42 836.94,-457.75"/>
<polygon fill="black" stroke="black" points="837.36,-454.27 827.1,-456.92 836.78,-461.25 837.36,-454.27"/>
<text text-anchor="middle" x="853.4" y="-455.45" font-family="Times,serif" font-size="14.00">wx</text>
</g>
<!-- dd&#45;&gt;dd -->
<g id="edge37" class="edge">
<title>dd&#45;&gt;dd</title>
<path fill="none" stroke="black" d="M818.24,-468.8C843.27,-468.73 863.15,-465.97 863.15,-460.5 863.15,-455.89 849,-453.2 829.54,-452.43"/>
<polygon fill="black" stroke="black" points="829.82,-448.94 819.75,-452.23 829.68,-455.94 829.82,-448.94"/>
<text text-anchor="middle" x="871.4" y="-455.45" font-family="Times,serif" font-size="14.00">wu</text>
</g>
</g>
</svg>
