<?xml version="1.0" encoding="UTF-8" standalone="no"?>
<!DOCTYPE svg PUBLIC "-//W3C//DTD SVG 1.1//EN"
 "http://www.w3.org/Graphics/SVG/1.1/DTD/svg11.dtd">
<!-- Generated by graphviz version 9.0.0 (0)
 -->
<!-- Title: xreg Pages: 1 -->
<svg width="768pt" height="825pt"
 viewBox="0.00 0.00 767.50 825.00" xmlns="http://www.w3.org/2000/svg" xmlns:xlink="http://www.w3.org/1999/xlink">
<g id="graph0" class="graph" transform="scale(1 1) rotate(0) translate(4 821)">
<title>xreg</title>
<polygon fill="white" stroke="none" points="-4,4 -4,-821 763.5,-821 763.5,4 -4,4"/>
<!-- init -->
<g id="node1" class="node">
<title>init</title>
</g>
<!-- ii -->
<g id="node2" class="node">
<title>ii</title>
<ellipse fill="none" stroke="black" cx="484" cy="-726" rx="98.44" ry="18"/>
<text text-anchor="middle" x="484" y="-720.95" font-family="Times,serif" font-size="14.00">!xd &amp; !xv &amp; !ud &amp; !uv</text>
<text text-anchor="start" x="378.06" y="-748.2" font-family="Times,serif" font-weight="bold" font-size="14.00">ii</text>
</g>
<!-- init&#45;&gt;ii -->
<g id="edge1" class="edge">
<title>init&#45;&gt;ii</title>
<path fill="none" stroke="black" d="M484,-781.17C484,-773.56 484,-764.35 484,-755.7"/>
<polygon fill="black" stroke="black" points="487.5,-755.96 484,-745.96 480.5,-755.96 487.5,-755.96"/>
</g>
<!-- ii&#45;&gt;ii -->
<g id="edge20" class="edge">
<title>ii&#45;&gt;ii</title>
<path fill="none" stroke="black" d="M581.68,-728.92C593.05,-728.38 600.44,-727.41 600.44,-726 600.44,-725.14 597.69,-724.45 592.98,-723.91"/>
<polygon fill="black" stroke="black" points="593.42,-720.43 583.19,-723.19 592.91,-727.41 593.42,-720.43"/>
<text text-anchor="middle" x="606.06" y="-720.95" font-family="Times,serif" font-size="14.00">fx</text>
</g>
<!-- ii&#45;&gt;ii -->
<g id="edge47" class="edge">
<title>ii&#45;&gt;ii</title>
<path fill="none" stroke="black" d="M576.05,-732.78C600.19,-732.38 618.44,-730.12 618.44,-726 618.44,-722.56 605.69,-720.41 587.4,-719.57"/>
<polygon fill="black" stroke="black" points="587.67,-716.08 577.57,-719.27 587.45,-723.07 587.67,-716.08"/>
<text text-anchor="middle" x="624.06" y="-720.95" font-family="Times,serif" font-size="14.00">fu</text>
</g>
<!-- ic -->
<g id="node3" class="node">
<title>ic</title>
<ellipse fill="none" stroke="black" cx="166" cy="-637.5" rx="95.37" ry="18"/>
<text text-anchor="middle" x="166" y="-632.45" font-family="Times,serif" font-size="14.00">!xd &amp; !xv &amp; !ud &amp; uv</text>
<text text-anchor="start" x="60.88" y="-659.7" font-family="Times,serif" font-weight="bold" font-size="14.00">ic</text>
</g>
<!-- ii&#45;&gt;ic -->
<g id="edge38" class="edge">
<title>ii&#45;&gt;ic</title>
<path fill="none" stroke="black" d="M407.27,-714.49C372.27,-708.78 330.52,-700.67 293.75,-690 265.54,-681.81 235,-669.62 210.85,-659.16"/>
<polygon fill="black" stroke="black" points="212.52,-656.08 201.96,-655.26 209.71,-662.48 212.52,-656.08"/>
<text text-anchor="middle" x="298.62" y="-676.7" font-family="Times,serif" font-size="14.00">ru</text>
</g>
<!-- id -->
<g id="node4" class="node">
<title>id</title>
<ellipse fill="none" stroke="black" cx="495" cy="-372" rx="92.3" ry="18"/>
<text text-anchor="middle" x="495" y="-366.95" font-family="Times,serif" font-size="14.00">!xd &amp; !xv &amp; ud &amp; uv</text>
<text text-anchor="start" x="391.45" y="-394.2" font-family="Times,serif" font-weight="bold" font-size="14.00">id</text>
</g>
<!-- ii&#45;&gt;id -->
<g id="edge29" class="edge">
<title>ii&#45;&gt;id</title>
<path fill="none" stroke="black" d="M561.01,-714.46C637.35,-701.79 743,-677.25 743,-638.5 743,-638.5 743,-638.5 743,-459.5 743,-423.66 649.51,-399.22 577.33,-385.7"/>
<polygon fill="black" stroke="black" points="578.35,-382.33 567.89,-383.97 577.1,-389.21 578.35,-382.33"/>
<text text-anchor="middle" x="751.25" y="-543.95" font-family="Times,serif" font-size="14.00">wu</text>
</g>
<!-- ci -->
<g id="node5" class="node">
<title>ci</title>
<ellipse fill="none" stroke="black" cx="554" cy="-549" rx="95.37" ry="18"/>
<text text-anchor="middle" x="554" y="-543.95" font-family="Times,serif" font-size="14.00">!xd &amp; xv &amp; !ud &amp; !uv</text>
<text text-anchor="start" x="448.88" y="-571.2" font-family="Times,serif" font-weight="bold" font-size="14.00">ci</text>
</g>
<!-- ii&#45;&gt;ci -->
<g id="edge11" class="edge">
<title>ii&#45;&gt;ci</title>
<path fill="none" stroke="black" d="M542.24,-711.06C552.35,-706.05 561.64,-699.24 568,-690 590.93,-656.66 578.32,-607.85 566.57,-577.54"/>
<polygon fill="black" stroke="black" points="569.96,-576.6 562.92,-568.68 563.49,-579.26 569.96,-576.6"/>
<text text-anchor="middle" x="585.62" y="-632.45" font-family="Times,serif" font-size="14.00">rx</text>
</g>
<!-- di -->
<g id="node8" class="node">
<title>di</title>
<ellipse fill="none" stroke="black" cx="364" cy="-460.5" rx="92.3" ry="18"/>
<text text-anchor="middle" x="364" y="-455.45" font-family="Times,serif" font-size="14.00">xd &amp; xv &amp; !ud &amp; !uv</text>
<text text-anchor="start" x="260.45" y="-482.7" font-family="Times,serif" font-weight="bold" font-size="14.00">di</text>
</g>
<!-- ii&#45;&gt;di -->
<g id="edge2" class="edge">
<title>ii&#45;&gt;di</title>
<path fill="none" stroke="black" d="M396.35,-717.54C377.45,-712.22 358.97,-703.65 345,-690 283.48,-629.9 312.8,-576.25 345,-496.5 346.06,-493.86 347.28,-491.17 348.56,-488.51"/>
<polygon fill="black" stroke="black" points="351.52,-490.4 353.03,-479.91 345.31,-487.17 351.52,-490.4"/>
<text text-anchor="middle" x="320.25" y="-588.2" font-family="Times,serif" font-size="14.00">wx</text>
</g>
<!-- ic&#45;&gt;ic -->
<g id="edge21" class="edge">
<title>ic&#45;&gt;ic</title>
<path fill="none" stroke="black" d="M252.5,-645.34C268.29,-644.35 279.37,-641.73 279.37,-637.5 279.37,-634.36 273.27,-632.11 263.66,-630.75"/>
<polygon fill="black" stroke="black" points="264.3,-627.3 254.01,-629.81 263.62,-634.26 264.3,-627.3"/>
<text text-anchor="middle" x="284.99" y="-632.45" font-family="Times,serif" font-size="14.00">fx</text>
</g>
<!-- ic&#45;&gt;ci -->
<g id="edge48" class="edge">
<title>ic&#45;&gt;ci</title>
<path fill="none" stroke="black" d="M255.62,-631.02C292.58,-626.29 335.07,-617.56 371,-601.5 381.76,-596.69 381.1,-590.04 391.75,-585 414.22,-574.36 439.98,-566.92 464.25,-561.73"/>
<polygon fill="black" stroke="black" points="464.69,-565.21 473.8,-559.79 463.3,-558.35 464.69,-565.21"/>
<text text-anchor="middle" x="396.62" y="-588.2" font-family="Times,serif" font-size="14.00">fu</text>
</g>
<!-- cc -->
<g id="node6" class="node">
<title>cc</title>
<ellipse fill="none" stroke="black" cx="202" cy="-18" rx="92.3" ry="18"/>
<text text-anchor="middle" x="202" y="-12.95" font-family="Times,serif" font-size="14.00">!xd &amp; xv &amp; !ud &amp; uv</text>
<text text-anchor="start" x="97.7" y="-40.2" font-family="Times,serif" font-weight="bold" font-size="14.00">cc</text>
</g>
<!-- ic&#45;&gt;cc -->
<g id="edge12" class="edge">
<title>ic&#45;&gt;cc</title>
<path fill="none" stroke="black" d="M101.69,-623.83C87.42,-618.71 73.22,-611.53 62,-601.5 43.18,-584.67 38,-575.25 38,-550 38,-550 38,-550 38,-105.5 38,-80.25 42.52,-70.07 62,-54 75.68,-42.71 92.51,-34.99 109.69,-29.72"/>
<polygon fill="black" stroke="black" points="110.24,-33.2 118.95,-27.16 108.38,-26.46 110.24,-33.2"/>
<text text-anchor="middle" x="43.62" y="-322.7" font-family="Times,serif" font-size="14.00">rx</text>
</g>
<!-- ic&#45;&gt;cc -->
<g id="edge39" class="edge">
<title>ic&#45;&gt;cc</title>
<path fill="none" stroke="black" d="M131.2,-620.28C105.88,-605.81 76,-581.97 76,-550 76,-550 76,-550 76,-105.5 76,-71.89 106.85,-50.36 138.03,-37.19"/>
<polygon fill="black" stroke="black" points="139.14,-40.51 147.16,-33.59 136.57,-34 139.14,-40.51"/>
<text text-anchor="middle" x="81.62" y="-322.7" font-family="Times,serif" font-size="14.00">ru</text>
</g>
<!-- cd -->
<g id="node7" class="node">
<title>cd</title>
<ellipse fill="none" stroke="black" cx="322" cy="-283.5" rx="89.23" ry="18"/>
<text text-anchor="middle" x="322" y="-278.45" font-family="Times,serif" font-size="14.00">!xd &amp; xv &amp; ud &amp; uv</text>
<text text-anchor="start" x="219.27" y="-305.7" font-family="Times,serif" font-weight="bold" font-size="14.00">cd</text>
</g>
<!-- ic&#45;&gt;cd -->
<g id="edge30" class="edge">
<title>ic&#45;&gt;cd</title>
<path fill="none" stroke="black" d="M183.55,-619.35C198.3,-603.03 217,-577.02 217,-550 217,-550 217,-550 217,-371 217,-347.28 215.1,-337.1 231,-319.5 237.36,-312.46 245.3,-306.82 253.82,-302.31"/>
<polygon fill="black" stroke="black" points="255.09,-305.58 262.66,-298.16 252.12,-299.24 255.09,-305.58"/>
<text text-anchor="middle" x="225.25" y="-455.45" font-family="Times,serif" font-size="14.00">wu</text>
</g>
<!-- dc -->
<g id="node9" class="node">
<title>dc</title>
<ellipse fill="none" stroke="black" cx="239" cy="-106.5" rx="89.23" ry="18"/>
<text text-anchor="middle" x="239" y="-101.45" font-family="Times,serif" font-size="14.00">xd &amp; xv &amp; !ud &amp; uv</text>
<text text-anchor="start" x="136.27" y="-128.7" font-family="Times,serif" font-weight="bold" font-size="14.00">dc</text>
</g>
<!-- ic&#45;&gt;dc -->
<g id="edge3" class="edge">
<title>ic&#45;&gt;dc</title>
<path fill="none" stroke="black" d="M151.1,-619.25C138.34,-602.65 122,-576.28 122,-550 122,-550 122,-550 122,-194 122,-161.69 151.21,-140.07 180.44,-126.53"/>
<polygon fill="black" stroke="black" points="181.56,-129.86 189.35,-122.67 178.78,-123.43 181.56,-129.86"/>
<text text-anchor="middle" x="130.25" y="-366.95" font-family="Times,serif" font-size="14.00">wx</text>
</g>
<!-- id&#45;&gt;id -->
<g id="edge22" class="edge">
<title>id&#45;&gt;id</title>
<path fill="none" stroke="black" d="M578.69,-379.87C594.3,-378.9 605.3,-376.28 605.3,-372 605.3,-368.86 599.37,-366.61 590.03,-365.25"/>
<polygon fill="black" stroke="black" points="590.49,-361.78 580.19,-364.28 589.8,-368.75 590.49,-361.78"/>
<text text-anchor="middle" x="610.92" y="-366.95" font-family="Times,serif" font-size="14.00">fx</text>
</g>
<!-- id&#45;&gt;cd -->
<g id="edge13" class="edge">
<title>id&#45;&gt;cd</title>
<path fill="none" stroke="black" d="M449.11,-355.99C433.75,-350.39 416.73,-343.54 401.75,-336 385.48,-327.81 368.4,-317.1 354.24,-307.56"/>
<polygon fill="black" stroke="black" points="356.42,-304.82 346.19,-302.05 352.46,-310.59 356.42,-304.82"/>
<text text-anchor="middle" x="406.62" y="-322.7" font-family="Times,serif" font-size="14.00">rx</text>
</g>
<!-- id&#45;&gt;di -->
<g id="edge49" class="edge">
<title>id&#45;&gt;di</title>
<path fill="none" stroke="black" d="M441.44,-387.1C427.68,-392.28 413.46,-399.12 401.75,-408 393.02,-414.62 385.41,-423.8 379.35,-432.58"/>
<polygon fill="black" stroke="black" points="376.47,-430.59 374.01,-440.89 382.36,-434.37 376.47,-430.59"/>
<text text-anchor="middle" x="406.62" y="-411.2" font-family="Times,serif" font-size="14.00">fu</text>
</g>
<!-- id&#45;&gt;dc -->
<g id="edge40" class="edge">
<title>id&#45;&gt;dc</title>
<path fill="none" stroke="black" d="M533.95,-355.3C543.58,-350.15 553.32,-343.73 561,-336 573.19,-323.73 574.88,-318.3 579,-301.5 592.46,-246.6 594.3,-215.59 553,-177 520.81,-146.92 408.96,-127.51 327.91,-117.05"/>
<polygon fill="black" stroke="black" points="328.55,-113.61 318.19,-115.83 327.68,-120.55 328.55,-113.61"/>
<text text-anchor="middle" x="592.62" y="-234.2" font-family="Times,serif" font-size="14.00">ru</text>
</g>
<!-- dd -->
<g id="node10" class="node">
<title>dd</title>
<ellipse fill="none" stroke="black" cx="389" cy="-195" rx="86.15" ry="18"/>
<text text-anchor="middle" x="389" y="-189.95" font-family="Times,serif" font-size="14.00">xd &amp; xv &amp; ud &amp; uv</text>
<text text-anchor="start" x="287.85" y="-217.2" font-family="Times,serif" font-weight="bold" font-size="14.00">dd</text>
</g>
<!-- id&#45;&gt;dd -->
<g id="edge4" class="edge">
<title>id&#45;&gt;dd</title>
<path fill="none" stroke="black" d="M489.3,-353.77C481.78,-332.21 467.3,-294.59 449,-265.5 439.07,-249.72 425.68,-233.84 414.07,-221.26"/>
<polygon fill="black" stroke="black" points="416.83,-219.08 407.42,-214.21 411.74,-223.89 416.83,-219.08"/>
<text text-anchor="middle" x="476.25" y="-278.45" font-family="Times,serif" font-size="14.00">wx</text>
</g>
<!-- id&#45;&gt;dd -->
<g id="edge31" class="edge">
<title>id&#45;&gt;dd</title>
<path fill="none" stroke="black" d="M498.32,-353.7C501.62,-331.73 504.23,-293.34 489,-265.5 477.45,-244.4 456.42,-228.32 436.61,-216.98"/>
<polygon fill="black" stroke="black" points="438.52,-214.03 428.06,-212.35 435.19,-220.19 438.52,-214.03"/>
<text text-anchor="middle" x="507.25" y="-278.45" font-family="Times,serif" font-size="14.00">wu</text>
</g>
<!-- ci&#45;&gt;ii -->
<g id="edge23" class="edge">
<title>ci&#45;&gt;ii</title>
<path fill="none" stroke="black" d="M545.12,-567.18C538.09,-581.1 528.24,-601.32 520.75,-619.5 510.15,-645.22 499.9,-675.24 492.92,-696.67"/>
<polygon fill="black" stroke="black" points="489.6,-695.57 489.87,-706.16 496.26,-697.71 489.6,-695.57"/>
<text text-anchor="middle" x="525.62" y="-632.45" font-family="Times,serif" font-size="14.00">fx</text>
</g>
<!-- ci&#45;&gt;ii -->
<g id="edge50" class="edge">
<title>ci&#45;&gt;ii</title>
<path fill="none" stroke="black" d="M552.22,-567.33C549.62,-588.67 543.75,-625.74 532,-655.5 525.41,-672.2 521.16,-675.2 511,-690 509.02,-692.88 506.89,-695.84 504.73,-698.77"/>
<polygon fill="black" stroke="black" points="502.02,-696.55 498.76,-706.63 507.6,-700.78 502.02,-696.55"/>
<text text-anchor="middle" x="547.62" y="-632.45" font-family="Times,serif" font-size="14.00">fu</text>
</g>
<!-- ci&#45;&gt;ic -->
<g id="edge41" class="edge">
<title>ci&#45;&gt;ic</title>
<path fill="none" stroke="black" d="M490.75,-562.82C470.09,-568.23 447.42,-575.52 427.75,-585 416.5,-590.42 416.57,-596.79 405,-601.5 362.84,-618.66 313.46,-627.56 270.56,-632.12"/>
<polygon fill="black" stroke="black" points="270.34,-628.62 260.74,-633.09 271.03,-635.59 270.34,-628.62"/>
<text text-anchor="middle" x="432.62" y="-588.2" font-family="Times,serif" font-size="14.00">ru</text>
</g>
<!-- ci&#45;&gt;id -->
<g id="edge32" class="edge">
<title>ci&#45;&gt;id</title>
<path fill="none" stroke="black" d="M548.13,-530.58C537.92,-500.31 516.83,-437.76 504.51,-401.22"/>
<polygon fill="black" stroke="black" points="507.84,-400.14 501.33,-391.78 501.21,-402.38 507.84,-400.14"/>
<text text-anchor="middle" x="538.25" y="-455.45" font-family="Times,serif" font-size="14.00">wu</text>
</g>
<!-- ci&#45;&gt;ci -->
<g id="edge14" class="edge">
<title>ci&#45;&gt;ci</title>
<path fill="none" stroke="black" d="M640.5,-556.84C656.29,-555.85 667.37,-553.23 667.37,-549 667.37,-545.86 661.27,-543.61 651.66,-542.25"/>
<polygon fill="black" stroke="black" points="652.3,-538.8 642.01,-541.31 651.62,-545.76 652.3,-538.8"/>
<text text-anchor="middle" x="672.99" y="-543.95" font-family="Times,serif" font-size="14.00">rx</text>
</g>
<!-- ci&#45;&gt;di -->
<g id="edge5" class="edge">
<title>ci&#45;&gt;di</title>
<path fill="none" stroke="black" d="M509.41,-532.72C495.07,-527.19 479.32,-520.45 465.5,-513 454.27,-506.94 453.09,-502.81 442,-496.5 432.9,-491.33 422.9,-486.35 413.18,-481.85"/>
<polygon fill="black" stroke="black" points="414.74,-478.71 404.18,-477.8 411.86,-485.1 414.74,-478.71"/>
<text text-anchor="middle" x="473.25" y="-499.7" font-family="Times,serif" font-size="14.00">wx</text>
</g>
<!-- cc&#45;&gt;ic -->
<g id="edge24" class="edge">
<title>cc&#45;&gt;ic</title>
<path fill="none" stroke="black" d="M113.69,-23.5C59.34,-31.6 0,-52.57 0,-105.5 0,-550 0,-550 0,-550 0,-590.34 39.02,-611.89 79.23,-623.4"/>
<polygon fill="black" stroke="black" points="78.26,-626.76 88.82,-625.93 80.05,-619.99 78.26,-626.76"/>
<text text-anchor="middle" x="5.62" y="-322.7" font-family="Times,serif" font-size="14.00">fx</text>
</g>
<!-- cc&#45;&gt;ci -->
<g id="edge51" class="edge">
<title>cc&#45;&gt;ci</title>
<path fill="none" stroke="black" d="M287.61,-25.09C431.2,-36.47 705,-63.66 705,-105.5 705,-461.5 705,-461.5 705,-461.5 705,-499.03 669.44,-520.51 632.83,-532.67"/>
<polygon fill="black" stroke="black" points="631.96,-529.28 623.44,-535.56 634.02,-535.97 631.96,-529.28"/>
<text text-anchor="middle" x="710.62" y="-278.45" font-family="Times,serif" font-size="14.00">fu</text>
</g>
<!-- cc&#45;&gt;cc -->
<g id="edge15" class="edge">
<title>cc&#45;&gt;cc</title>
<path fill="none" stroke="black" d="M292.87,-21.64C304.57,-21.01 312.3,-19.79 312.3,-18 312.3,-16.88 309.28,-15.99 304.16,-15.32"/>
<polygon fill="black" stroke="black" points="304.63,-11.85 294.38,-14.49 304.04,-18.82 304.63,-11.85"/>
<text text-anchor="middle" x="317.92" y="-12.95" font-family="Times,serif" font-size="14.00">rx</text>
</g>
<!-- cc&#45;&gt;cc -->
<g id="edge42" class="edge">
<title>cc&#45;&gt;cc</title>
<path fill="none" stroke="black" d="M284.67,-26.29C310.23,-26.12 330.3,-23.36 330.3,-18 330.3,-13.46 315.88,-10.78 295.92,-9.97"/>
<polygon fill="black" stroke="black" points="296.27,-6.48 286.19,-9.75 296.11,-13.47 296.27,-6.48"/>
<text text-anchor="middle" x="335.92" y="-12.95" font-family="Times,serif" font-size="14.00">ru</text>
</g>
<!-- cc&#45;&gt;cd -->
<g id="edge33" class="edge">
<title>cc&#45;&gt;cd</title>
<path fill="none" stroke="black" d="M293.54,-20.48C385.26,-27.29 523.12,-53.02 597,-142.5 679.16,-242.02 624.84,-227.56 607,-247.5 582.84,-274.49 480.94,-261.02 445,-265.5 431.88,-267.14 417.99,-268.96 404.45,-270.8"/>
<polygon fill="black" stroke="black" points="404.11,-267.31 394.68,-272.13 405.06,-274.24 404.11,-267.31"/>
<text text-anchor="middle" x="617.25" y="-145.7" font-family="Times,serif" font-size="14.00">wu</text>
</g>
<!-- cc&#45;&gt;dc -->
<g id="edge6" class="edge">
<title>cc&#45;&gt;dc</title>
<path fill="none" stroke="black" d="M207.57,-36.41C210.97,-46.5 215.59,-59.37 220.5,-70.5 221.6,-72.99 222.8,-75.55 224.05,-78.1"/>
<polygon fill="black" stroke="black" points="220.91,-79.65 228.59,-86.95 227.14,-76.45 220.91,-79.65"/>
<text text-anchor="middle" x="229.25" y="-57.2" font-family="Times,serif" font-size="14.00">wx</text>
</g>
<!-- cd&#45;&gt;id -->
<g id="edge25" class="edge">
<title>cd&#45;&gt;id</title>
<path fill="none" stroke="black" d="M366.25,-299.56C381.35,-305.21 398.17,-312.08 413,-319.5 429.49,-327.75 446.9,-338.39 461.42,-347.85"/>
<polygon fill="black" stroke="black" points="459.43,-350.73 469.7,-353.33 463.3,-344.89 459.43,-350.73"/>
<text text-anchor="middle" x="445.62" y="-322.7" font-family="Times,serif" font-size="14.00">fx</text>
</g>
<!-- cd&#45;&gt;cd -->
<g id="edge16" class="edge">
<title>cd&#45;&gt;cd</title>
<path fill="none" stroke="black" d="M402.89,-291.4C418.32,-290.45 429.23,-287.82 429.23,-283.5 429.23,-280.33 423.34,-278.06 414.11,-276.71"/>
<polygon fill="black" stroke="black" points="414.7,-273.25 404.4,-275.75 414.01,-280.22 414.7,-273.25"/>
<text text-anchor="middle" x="434.85" y="-278.45" font-family="Times,serif" font-size="14.00">rx</text>
</g>
<!-- cd&#45;&gt;di -->
<g id="edge52" class="edge">
<title>cd&#45;&gt;di</title>
<path fill="none" stroke="black" d="M326.16,-301.85C333.42,-332.07 348.43,-394.62 357.21,-431.19"/>
<polygon fill="black" stroke="black" points="353.73,-431.7 359.47,-440.61 360.54,-430.07 353.73,-431.7"/>
<text text-anchor="middle" x="352.62" y="-366.95" font-family="Times,serif" font-size="14.00">fu</text>
</g>
<!-- cd&#45;&gt;dc -->
<g id="edge43" class="edge">
<title>cd&#45;&gt;dc</title>
<path fill="none" stroke="black" d="M295.46,-265.96C278.29,-253.65 257.24,-235.19 246.75,-213 235.36,-188.91 234.39,-158.22 235.69,-136.17"/>
<polygon fill="black" stroke="black" points="239.16,-136.65 236.47,-126.41 232.18,-136.1 239.16,-136.65"/>
<text text-anchor="middle" x="252.62" y="-189.95" font-family="Times,serif" font-size="14.00">ru</text>
</g>
<!-- cd&#45;&gt;dd -->
<g id="edge7" class="edge">
<title>cd&#45;&gt;dd</title>
<path fill="none" stroke="black" d="M330.11,-265.46C335.47,-255.02 343.05,-241.66 351.5,-231 354.28,-227.49 357.42,-224 360.66,-220.67"/>
<polygon fill="black" stroke="black" points="362.98,-223.31 367.73,-213.83 358.11,-218.28 362.98,-223.31"/>
<text text-anchor="middle" x="359.25" y="-234.2" font-family="Times,serif" font-size="14.00">wx</text>
</g>
<!-- cd&#45;&gt;dd -->
<g id="edge34" class="edge">
<title>cd&#45;&gt;dd</title>
<path fill="none" stroke="black" d="M348.49,-266.12C355.52,-260.84 362.63,-254.51 368,-247.5 373.27,-240.62 377.42,-232.24 380.6,-224.25"/>
<polygon fill="black" stroke="black" points="383.89,-225.44 383.94,-214.85 377.29,-223.1 383.89,-225.44"/>
<text text-anchor="middle" x="385.25" y="-234.2" font-family="Times,serif" font-size="14.00">wu</text>
</g>
<!-- di&#45;&gt;ii -->
<g id="edge26" class="edge">
<title>di&#45;&gt;ii</title>
<path fill="none" stroke="black" d="M358.71,-478.69C351.29,-505.93 340.53,-560.18 357.75,-601.5 375.76,-644.72 417.2,-680.32 447.72,-702.01"/>
<polygon fill="black" stroke="black" points="445.34,-704.62 455.55,-707.43 449.32,-698.87 445.34,-704.62"/>
<text text-anchor="middle" x="362.62" y="-588.2" font-family="Times,serif" font-size="14.00">fx</text>
</g>
<!-- di&#45;&gt;ii -->
<g id="edge53" class="edge">
<title>di&#45;&gt;ii</title>
<path fill="none" stroke="black" d="M376.3,-478.77C392.41,-502.02 420.76,-545.07 439,-585 456.06,-622.35 469.44,-668.03 477.04,-696.83"/>
<polygon fill="black" stroke="black" points="473.58,-697.43 479.47,-706.24 480.36,-695.68 473.58,-697.43"/>
<text text-anchor="middle" x="450.62" y="-588.2" font-family="Times,serif" font-size="14.00">fu</text>
</g>
<!-- di&#45;&gt;ic -->
<g id="edge44" class="edge">
<title>di&#45;&gt;ic</title>
<path fill="none" stroke="black" d="M331.07,-477.74C322.07,-483.03 312.7,-489.39 305,-496.5 263.08,-535.25 273.72,-563.62 231,-601.5 225.39,-606.47 218.96,-611 212.37,-615.02"/>
<polygon fill="black" stroke="black" points="210.94,-611.81 203.99,-619.8 214.41,-617.89 210.94,-611.81"/>
<text text-anchor="middle" x="282.62" y="-543.95" font-family="Times,serif" font-size="14.00">ru</text>
</g>
<!-- di&#45;&gt;id -->
<g id="edge35" class="edge">
<title>di&#45;&gt;id</title>
<path fill="none" stroke="black" d="M389.26,-442.82C409.46,-429.48 438.01,-410.63 460.36,-395.88"/>
<polygon fill="black" stroke="black" points="462.14,-398.89 468.56,-390.46 458.28,-393.05 462.14,-398.89"/>
<text text-anchor="middle" x="449.25" y="-411.2" font-family="Times,serif" font-size="14.00">wu</text>
</g>
<!-- di&#45;&gt;ci -->
<g id="edge17" class="edge">
<title>di&#45;&gt;ci</title>
<path fill="none" stroke="black" d="M422.77,-474.78C442.15,-480.24 463.47,-487.45 482,-496.5 484.29,-497.62 503.59,-511.45 521.63,-524.49"/>
<polygon fill="black" stroke="black" points="519.48,-527.25 529.63,-530.28 523.58,-521.58 519.48,-527.25"/>
<text text-anchor="middle" x="510.62" y="-499.7" font-family="Times,serif" font-size="14.00">rx</text>
</g>
<!-- di&#45;&gt;di -->
<g id="edge8" class="edge">
<title>di&#45;&gt;di</title>
<path fill="none" stroke="black" d="M447.69,-468.37C463.3,-467.4 474.3,-464.78 474.3,-460.5 474.3,-457.36 468.37,-455.11 459.03,-453.75"/>
<polygon fill="black" stroke="black" points="459.49,-450.28 449.19,-452.78 458.8,-457.25 459.49,-450.28"/>
<text text-anchor="middle" x="482.55" y="-455.45" font-family="Times,serif" font-size="14.00">wx</text>
</g>
<!-- dc&#45;&gt;ic -->
<g id="edge27" class="edge">
<title>dc&#45;&gt;ic</title>
<path fill="none" stroke="black" d="M235.48,-124.94C234.36,-130.55 233.12,-136.78 232,-142.5 213.67,-236.42 205.05,-259.24 191.75,-354 178.78,-446.36 170.91,-556.68 167.69,-607.83"/>
<polygon fill="black" stroke="black" points="164.2,-607.53 167.08,-617.72 171.19,-607.96 164.2,-607.53"/>
<text text-anchor="middle" x="197.62" y="-366.95" font-family="Times,serif" font-size="14.00">fx</text>
</g>
<!-- dc&#45;&gt;ci -->
<g id="edge54" class="edge">
<title>dc&#45;&gt;ci</title>
<path fill="none" stroke="black" d="M325.99,-111.02C433.42,-116.02 605.1,-126.41 630,-142.5 652.06,-156.75 659,-167.73 659,-194 659,-461.5 659,-461.5 659,-461.5 659,-491.76 632.7,-513.4 606.42,-527.47"/>
<polygon fill="black" stroke="black" points="605.13,-524.2 597.76,-531.81 608.27,-530.46 605.13,-524.2"/>
<text text-anchor="middle" x="664.62" y="-322.7" font-family="Times,serif" font-size="14.00">fu</text>
</g>
<!-- dc&#45;&gt;cc -->
<g id="edge18" class="edge">
<title>dc&#45;&gt;cc</title>
<path fill="none" stroke="black" d="M241.41,-88.1C242.1,-77.77 241.66,-64.66 237,-54 235.52,-50.61 233.55,-47.38 231.3,-44.34"/>
<polygon fill="black" stroke="black" points="234.09,-42.22 224.88,-36.99 228.82,-46.82 234.09,-42.22"/>
<text text-anchor="middle" x="247.62" y="-57.2" font-family="Times,serif" font-size="14.00">rx</text>
</g>
<!-- dc&#45;&gt;cc -->
<g id="edge45" class="edge">
<title>dc&#45;&gt;cc</title>
<path fill="none" stroke="black" d="M213.9,-88.81C208.19,-83.67 202.89,-77.5 199.75,-70.5 196.63,-63.53 195.84,-55.49 196.17,-47.86"/>
<polygon fill="black" stroke="black" points="199.65,-48.26 197.28,-37.93 192.69,-47.49 199.65,-48.26"/>
<text text-anchor="middle" x="205.62" y="-57.2" font-family="Times,serif" font-size="14.00">ru</text>
</g>
<!-- dc&#45;&gt;cd -->
<g id="edge36" class="edge">
<title>dc&#45;&gt;cd</title>
<path fill="none" stroke="black" d="M244.02,-124.79C250.5,-146.09 262.71,-183.12 277.5,-213 284.82,-227.79 294.57,-243.35 303.07,-255.98"/>
<polygon fill="black" stroke="black" points="300.15,-257.91 308.7,-264.17 305.92,-253.94 300.15,-257.91"/>
<text text-anchor="middle" x="285.25" y="-189.95" font-family="Times,serif" font-size="14.00">wu</text>
</g>
<!-- dc&#45;&gt;dc -->
<g id="edge9" class="edge">
<title>dc&#45;&gt;dc</title>
<path fill="none" stroke="black" d="M319.89,-114.4C335.32,-113.45 346.23,-110.82 346.23,-106.5 346.23,-103.33 340.34,-101.06 331.11,-99.71"/>
<polygon fill="black" stroke="black" points="331.7,-96.25 321.4,-98.75 331.01,-103.22 331.7,-96.25"/>
<text text-anchor="middle" x="354.48" y="-101.45" font-family="Times,serif" font-size="14.00">wx</text>
</g>
<!-- dd&#45;&gt;id -->
<g id="edge28" class="edge">
<title>dd&#45;&gt;id</title>
<path fill="none" stroke="black" d="M461.8,-204.9C495.79,-210.53 531.31,-219.04 543,-231 575.61,-264.38 568.2,-296.72 543,-336 540.3,-340.22 536.89,-344.09 533.15,-347.6"/>
<polygon fill="black" stroke="black" points="531.2,-344.67 525.72,-353.74 535.66,-350.07 531.2,-344.67"/>
<text text-anchor="middle" x="569.62" y="-278.45" font-family="Times,serif" font-size="14.00">fx</text>
</g>
<!-- dd&#45;&gt;cd -->
<g id="edge19" class="edge">
<title>dd&#45;&gt;cd</title>
<path fill="none" stroke="black" d="M346.67,-211.08C338.06,-216.1 330.04,-222.62 324.75,-231 320.45,-237.82 318.83,-246.21 318.55,-254.23"/>
<polygon fill="black" stroke="black" points="315.04,-254.08 318.87,-263.96 322.04,-253.85 315.04,-254.08"/>
<text text-anchor="middle" x="329.62" y="-234.2" font-family="Times,serif" font-size="14.00">rx</text>
</g>
<!-- dd&#45;&gt;di -->
<g id="edge55" class="edge">
<title>dd&#45;&gt;di</title>
<path fill="none" stroke="black" d="M320.9,-206.43C285.65,-215.66 245.58,-233 224,-265.5 181.85,-328.99 272.04,-401.13 326.52,-436.9"/>
<polygon fill="black" stroke="black" points="324.33,-439.66 334.63,-442.12 328.12,-433.77 324.33,-439.66"/>
<text text-anchor="middle" x="227.62" y="-322.7" font-family="Times,serif" font-size="14.00">fu</text>
</g>
<!-- dd&#45;&gt;dc -->
<g id="edge46" class="edge">
<title>dd&#45;&gt;dc</title>
<path fill="none" stroke="black" d="M360.79,-177.73C337.26,-164.16 303.51,-144.7 277.5,-129.7"/>
<polygon fill="black" stroke="black" points="279.32,-126.71 268.91,-124.75 275.82,-132.77 279.32,-126.71"/>
<text text-anchor="middle" x="332.62" y="-145.7" font-family="Times,serif" font-size="14.00">ru</text>
</g>
<!-- dd&#45;&gt;dd -->
<g id="edge10" class="edge">
<title>dd&#45;&gt;dd</title>
<path fill="none" stroke="black" d="M473.59,-198.7C485.32,-198.09 493.15,-196.86 493.15,-195 493.15,-193.84 490.09,-192.92 484.94,-192.25"/>
<polygon fill="black" stroke="black" points="485.36,-188.77 475.1,-191.42 484.78,-195.75 485.36,-188.77"/>
<text text-anchor="middle" x="501.4" y="-189.95" font-family="Times,serif" font-size="14.00">wx</text>
</g>
<!-- dd&#45;&gt;dd -->
<g id="edge37" class="edge">
<title>dd&#45;&gt;dd</title>
<path fill="none" stroke="black" d="M466.24,-203.3C491.27,-203.23 511.15,-200.47 511.15,-195 511.15,-190.39 497,-187.7 477.54,-186.93"/>
<polygon fill="black" stroke="black" points="477.82,-183.44 467.75,-186.73 477.68,-190.44 477.82,-183.44"/>
<text text-anchor="middle" x="519.4" y="-189.95" font-family="Times,serif" font-size="14.00">wu</text>
</g>
</g>
</svg>
